<svg width="580" height="400" xmlns="http://www.w3.org/2000/svg" xmlns:xlink="http://www.w3.org/1999/xlink">
 <!-- Created with SVG Editor - http://github.com/mzalive/SVG Editor/ -->

 <g>
  <title>background</title>
  <rect fill="#fff" id="canvas_background" height="402" width="582" y="-1" x="-1"/>
  <g display="none" overflow="visible" y="0" x="0" height="100%" width="100%" id="canvasGrid">
   <rect fill="url(#gridpattern)" stroke-width="0" y="0" x="0" height="100%" width="100%"/>
  </g>
 </g>
 <g>
  <title>Layer 1</title>
  <style transform="matrix(0.05817567170968019,0,0,0.05817567170968019,0,0) ">.st0{fill:#fff}.st1{clip-path:url(#SVGID_2_)}.st2{clip-path:url(#SVGID_4_)}.st3{clip-path:url(#SVGID_6_)}.st4{clip-path:url(#SVGID_8_)}.st5{fill:#fff;stroke:#000;stroke-width:4;stroke-miterlimit:10}.st6{clip-path:url(#SVGID_8_)}.st6,.st7{fill:none;stroke:#000;stroke-width:4;stroke-miterlimit:10}.st8,.st9{clip-path:url(#SVGID_10_)}.st9{fill:none;stroke:#000;stroke-width:4;stroke-miterlimit:10}</style>
  <defs>
   <ellipse ry="51.8" rx="63" cy="67.9" cx="420.5" transform="rotate(-37.000999450683594 420.4599914550782,67.8799972534179) " id="svg_27"/>
  </defs>
  <clipPath transform="matrix(0.05817567170968019,0,0,0.05817567170968019,0,0) " id="svg_26">
   <use id="svg_34" xlink:href="#svg_27"/>
  </clipPath>
  <g id="svg_55">
   <path fill="#f4f7f7" id="svg_29" d="m265.052876,254.456846l1.53002,-0.098899c0.034905,0.250155 0.098899,0.436318 0.203615,0.570122c0.168709,0.209432 0.401412,0.314149 0.709743,0.314149c0.226885,0 0.40723,-0.052358 0.529399,-0.162892c0.116351,-0.087264 0.186162,-0.226885 0.186162,-0.372324c0,-0.139622 -0.063993,-0.273426 -0.174527,-0.360689c-0.116351,-0.104716 -0.389777,-0.209432 -0.820277,-0.302513c-0.703926,-0.157074 -1.210054,-0.366507 -1.50675,-0.634115c-0.296696,-0.250155 -0.465405,-0.616662 -0.45377,-1.006439c0,-0.267608 0.081446,-0.535216 0.232703,-0.756284c0.174527,-0.250155 0.413047,-0.447953 0.698108,-0.558486c0.308331,-0.133804 0.738831,-0.203615 1.279865,-0.203615c0.663203,0 1.169331,0.122169 1.518385,0.372324c0.349054,0.244338 0.558486,0.639932 0.62248,1.180966l-1.512567,0.087264c-0.040723,-0.232703 -0.122169,-0.401412 -0.255973,-0.511946s-0.308331,-0.162892 -0.535216,-0.162892c-0.186162,0 -0.325784,0.040723 -0.418865,0.116351c-0.087264,0.069811 -0.145439,0.174527 -0.139622,0.290878c0,0.087264 0.046541,0.168709 0.116351,0.221068c0.075628,0.069811 0.255973,0.133804 0.541034,0.19198c0.703926,0.151257 1.204236,0.302513 1.512567,0.459588c0.308331,0.157074 0.529399,0.349054 0.663203,0.575939c0.139622,0.232703 0.209432,0.500311 0.203615,0.773736c0,0.325784 -0.093081,0.651568 -0.279243,0.924993c-0.19198,0.285061 -0.459588,0.506128 -0.773736,0.639932c-0.331601,0.145439 -0.750466,0.221068 -1.250777,0.221068c-0.88427,0 -1.495115,-0.168709 -1.838351,-0.511946s-0.546851,-0.773736 -0.587574,-1.297317zm-16.23683,1.722l0,-5.200905l2.681898,0c0.494493,0 0.878453,0.040723 1.140243,0.127986c0.255973,0.081446 0.482858,0.250155 0.634115,0.477041c0.168709,0.250155 0.250155,0.541034 0.244338,0.843547c0.017453,0.511946 -0.244338,1.000622 -0.69229,1.256595c-0.174527,0.098899 -0.366507,0.168709 -0.564304,0.203615c0.145439,0.040723 0.290878,0.110534 0.418865,0.19198c0.098899,0.081446 0.180345,0.174527 0.255973,0.273426c0.087264,0.098899 0.162892,0.209432 0.226885,0.325784l0.779554,1.50675l-1.826716,0l-0.861,-1.599831c-0.110534,-0.203615 -0.203615,-0.337419 -0.290878,-0.401412c-0.116351,-0.081446 -0.255973,-0.122169 -0.395595,-0.122169l-0.139622,0l0,2.111777l-1.611466,0l0,0.005818zm1.611466,-3.094946l0.680655,0c0.145439,-0.011635 0.285061,-0.034905 0.424682,-0.069811c0.104716,-0.017453 0.197797,-0.075628 0.261791,-0.162892c0.157074,-0.209432 0.133804,-0.506128 -0.058176,-0.686473c-0.104716,-0.087264 -0.308331,-0.133804 -0.599209,-0.133804l-0.709743,0l0,1.05298zm-1.977973,7.551202l1.53002,-0.098899c0.034905,0.250155 0.098899,0.436318 0.203615,0.570122c0.162892,0.209432 0.401412,0.319966 0.709743,0.319966c0.226885,0 0.40723,-0.052358 0.529399,-0.162892c0.116351,-0.093081 0.186162,-0.226885 0.186162,-0.372324c0,-0.139622 -0.063993,-0.273426 -0.174527,-0.360689c-0.116351,-0.104716 -0.389777,-0.209432 -0.826095,-0.302513c-0.703926,-0.157074 -1.210054,-0.366507 -1.50675,-0.634115c-0.296696,-0.250155 -0.465405,-0.616662 -0.45377,-1.006439c0,-0.267608 0.081446,-0.535216 0.232703,-0.756284c0.174527,-0.250155 0.413047,-0.447953 0.698108,-0.558486c0.308331,-0.133804 0.738831,-0.203615 1.279865,-0.203615c0.663203,0 1.169331,0.122169 1.518385,0.372324s0.552669,0.639932 0.616662,1.180966l-1.512567,0.087264c-0.040723,-0.232703 -0.122169,-0.401412 -0.255973,-0.511946c-0.127986,-0.110534 -0.308331,-0.162892 -0.535216,-0.157074c-0.186162,0 -0.325784,0.040723 -0.418865,0.122169c-0.093081,0.069811 -0.145439,0.174527 -0.139622,0.290878c0,0.087264 0.046541,0.168709 0.116351,0.221068c0.075628,0.069811 0.255973,0.133804 0.541034,0.19198c0.703926,0.151257 1.204236,0.302513 1.512567,0.459588c0.308331,0.157074 0.529399,0.349054 0.663203,0.575939c0.139622,0.232703 0.209432,0.500311 0.209432,0.767919c0,0.325784 -0.098899,0.64575 -0.279243,0.919176c-0.19198,0.285061 -0.459588,0.506128 -0.773736,0.639932c-0.331601,0.145439 -0.750466,0.221068 -1.250777,0.221068c-0.88427,0 -1.495115,-0.168709 -1.838351,-0.511946c-0.343236,-0.349054 -0.535216,-0.779554 -0.581757,-1.303135z"/>
   <path fill="#f4f7f7" id="svg_30" d="m256.186904,260.227873l1.407851,0.424682c-0.075628,0.354872 -0.232703,0.69229 -0.447953,0.988986c-0.197797,0.261791 -0.459588,0.465405 -0.756284,0.599209c-0.302513,0.133804 -0.686473,0.203615 -1.151878,0.203615c-0.564304,0 -1.029709,-0.081446 -1.384581,-0.244338c-0.360689,-0.162892 -0.66902,-0.45377 -0.930811,-0.866818c-0.261791,-0.413047 -0.389777,-0.942446 -0.389777,-1.588196c0,-0.861 0.226885,-1.524203 0.686473,-1.98379s1.105338,-0.69229 1.943067,-0.69229c0.657385,0 1.169331,0.133804 1.547473,0.395595c0.372324,0.267608 0.651568,0.674838 0.83773,1.221689l-1.419486,0.314149c-0.034905,-0.122169 -0.087264,-0.244338 -0.157074,-0.349054c-0.087264,-0.122169 -0.197797,-0.21525 -0.331601,-0.285061c-0.133804,-0.069811 -0.285061,-0.098899 -0.436318,-0.098899c-0.366507,0 -0.64575,0.145439 -0.83773,0.442135c-0.145439,0.21525 -0.221068,0.558486 -0.221068,1.023892c0,0.575939 0.087264,0.971534 0.261791,1.186784c0.174527,0.21525 0.418865,0.319966 0.738831,0.319966c0.308331,0 0.541034,-0.087264 0.698108,-0.255973c0.157074,-0.180345 0.273426,-0.4305 0.343236,-0.756284zm3.286925,-3.071675l1.605649,0l0,1.820899l1.756905,0l0,-1.820899l1.617284,0l0,5.200905l-1.617284,0l0,-2.105959l-1.756905,0l0,2.105959l-1.605649,0l0,-5.200905z"/>
   <path fill="#f4f7f7" id="svg_31" d="m264.232599,259.75665c0,-0.849365 0.23852,-1.512567 0.709743,-1.98379c0.471223,-0.471223 1.134426,-0.709743 1.977973,-0.709743c0.866818,0 1.53002,0.232703 2.001243,0.698108s0.703926,1.116973 0.703926,1.954703c0,0.610845 -0.104716,1.105338 -0.308331,1.495115c-0.197797,0.383959 -0.506128,0.698108 -0.88427,0.90754c-0.389777,0.21525 -0.872635,0.325784 -1.448574,0.325784c-0.587574,0 -1.070432,-0.093081 -1.454392,-0.279243c-0.395595,-0.197797 -0.721378,-0.506128 -0.936628,-0.88427c-0.23852,-0.40723 -0.360689,-0.913358 -0.360689,-1.524203zm1.605649,0.005818c0,0.523581 0.098899,0.901723 0.290878,1.134426c0.19198,0.226885 0.459588,0.343236 0.797007,0.343236c0.343236,0 0.610845,-0.110534 0.802824,-0.337419s0.285061,-0.628297 0.285061,-1.210054c0,-0.488676 -0.098899,-0.849365 -0.296696,-1.070432c-0.197797,-0.226885 -0.465405,-0.337419 -0.802824,-0.337419c-0.296696,-0.011635 -0.581757,0.116351 -0.779554,0.343236c-0.197797,0.226885 -0.296696,0.605027 -0.296696,1.134426zm5.433608,-0.005818c0,-0.849365 0.23852,-1.512567 0.709743,-1.98379c0.471223,-0.471223 1.134426,-0.709743 1.977973,-0.709743c0.866818,0 1.535838,0.232703 2.001243,0.698108s0.703926,1.116973 0.703926,1.954703c0,0.610845 -0.104716,1.105338 -0.308331,1.495115c-0.197797,0.383959 -0.506128,0.698108 -0.88427,0.90754c-0.389777,0.21525 -0.872635,0.325784 -1.448574,0.325784c-0.587574,0 -1.070432,-0.093081 -1.454392,-0.279243c-0.395595,-0.197797 -0.721378,-0.506128 -0.936628,-0.88427c-0.23852,-0.40723 -0.360689,-0.913358 -0.360689,-1.524203zm1.605649,0.005818c0,0.523581 0.098899,0.901723 0.290878,1.134426c0.19198,0.226885 0.459588,0.343236 0.797007,0.343236c0.343236,0 0.610845,-0.110534 0.802824,-0.337419c0.19198,-0.226885 0.285061,-0.628297 0.285061,-1.210054c0,-0.488676 -0.098899,-0.849365 -0.296696,-1.070432c-0.197797,-0.226885 -0.465405,-0.337419 -0.802824,-0.337419c-0.296696,-0.011635 -0.587574,0.116351 -0.779554,0.343236c-0.197797,0.226885 -0.296696,0.605027 -0.296696,1.134426z"/>
   <path fill="#f4f7f7" id="svg_32" d="m276.496031,257.156197l1.605649,0l0,3.92104l2.507371,0l0,1.279865l-4.118838,0l0,-5.200905l0.005818,0z"/>
   <ellipse fill="#f4f7f7" id="svg_33" ry="51.8" rx="63" cy="4373.839113" cx="4691.17762" class="st0" transform="rotate(-37.000999450683594 318.8594970703126,166.8245239257813) matrix(0.24119633436203003,0,0,0.24119633436203003,95.24676123262694,-181.63913079208209) matrix(0.24119633436203,0,0,0.24119633436203,-204.3965258110868,389.77624648120303) "/>
   <g transform="matrix(0.05817567170968019,0,0,0.05817567170968019,0,0) " id="svg_35" class="st1">
    <path fill="#f4f7f7" id="svg_36" d="m4601.577734,4291.738965l179.8,0l0,165.1l-179.8,0l0,-165.1z" class="st0" transform="rotate(-37.000999450683594 4691.4775390625,4374.289062500001) "/>
    <g id="svg_16">
     <defs fill="#f4f7f7" transform="translate(4270.677734375,0) translate(0,4305.93896484375) ">
      <path fill="#f4f7f7" d="m330.9,-14.2l179.8,0l0,165.1l-179.8,0l0,-165.1z" transform="rotate(-37.000999450683594 420.7999877929688,68.34999847412108) " id="svg_25"/>
     </defs>
     <clipPath fill="#f4f7f7" transform="translate(4270.677734375,0) translate(0,4305.93896484375) " id="svg_24">
      <use fill="#f4f7f7" id="svg_37" xlink:href="#svg_25"/>
     </clipPath>
     <g class="st2" id="svg_17">
      <ellipse fill="#f4f7f7" id="svg_38" ry="51.8" rx="63" cy="4373.838965" cx="4691.177734" class="st0" transform="rotate(-37.000999450683594 4691.177734375,4373.8388671875) "/>
      <defs fill="#f4f7f7" transform="translate(4270.677734375,0) translate(0,4305.93896484375) ">
       <ellipse fill="#f4f7f7" ry="51.8" rx="63" cy="67.9" cx="420.5" transform="rotate(-37.000999450683594 420.5,67.90000152587892) " id="svg_23"/>
      </defs>
      <clipPath fill="#f4f7f7" transform="translate(4270.677734375,0) translate(0,4305.93896484375) " id="svg_22">
       <use fill="#f4f7f7" id="svg_39" xlink:href="#svg_23"/>
      </clipPath>
      <g id="svg_40" class="st3">
       <path fill="#f4f7f7" id="svg_41" d="m4628.477734,4322.938965l125.9,0l0,103.7l-125.9,0l0,-103.7z" class="st0" transform="rotate(-37 4691.427734374999,4374.7890625) "/>
       <defs fill="#f4f7f7" transform="translate(4270.677734375,0) translate(0,4305.93896484375) ">
        <path fill="#f4f7f7" d="m357.8,17l125.9,0l0,103.7l-125.9,0l0,-103.7z" transform="rotate(-37 420.75,68.84999847412105) " id="svg_21"/>
       </defs>
       <clipPath fill="#f4f7f7" transform="translate(4270.677734375,0) translate(0,4305.93896484375) " id="svg_20">
        <use fill="#f4f7f7" id="svg_42" xlink:href="#svg_21"/>
       </clipPath>
       <g id="svg_43" class="st4">
        <ellipse fill="#f4f7f7" id="svg_44" ry="51.8" rx="63" cy="4373.838965" cx="4691.177734" class="st5" transform="rotate(-37.000999450683594 4691.177734375,4373.8388671875) "/>
       </g>
       <path fill="#f4f7f7" id="svg_45" d="m4628.477734,4322.938965l125.9,0l0,103.7l-125.9,0l0,-103.7z" class="st6" transform="rotate(-37 4691.427734374999,4374.7890625) "/>
       <ellipse fill="#f4f7f7" id="svg_46" ry="51.8" rx="63" cy="4373.838965" cx="4691.177734" class="st7" transform="rotate(-37.000999450683594 4691.177734375,4373.8388671875) "/>
       <path fill="#f4f7f7" id="svg_47" d="m4628.477734,4322.938965l125.9,0l0,103.7l-125.9,0l0,-103.7z" class="st0" transform="rotate(-37 4691.427734374999,4374.7890625) "/>
       <defs fill="#f4f7f7" transform="translate(4270.677734375,0) translate(0,4305.93896484375) ">
        <path fill="#f4f7f7" d="m357.8,17l125.9,0l0,103.7l-125.9,0l0,-103.7z" transform="rotate(-37 420.75,68.84999847412105) " id="svg_19"/>
       </defs>
       <clipPath fill="#f4f7f7" transform="translate(4270.677734375,0) translate(0,4305.93896484375) " id="svg_18">
        <use fill="#f4f7f7" id="svg_48" xlink:href="#svg_19"/>
       </clipPath>
       <g id="svg_49" class="st8">
        <ellipse fill="#f4f7f7" id="svg_50" ry="51.8" rx="63" cy="4373.838965" cx="4691.177734" class="st5" transform="rotate(-37.000999450683594 4691.177734375,4373.8388671875) "/>
       </g>
       <path fill="#f4f7f7" id="svg_51" d="m4628.477734,4322.938965l125.9,0l0,103.7l-125.9,0l0,-103.7z" class="st9" transform="rotate(-37 4691.427734374999,4374.7890625) "/>
       <path fill="#f4f7f7" id="svg_52" d="m4601.577734,4291.738965l179.8,0l0,165.1l-179.8,0l0,-165.1z" class="st7" transform="rotate(-37.000999450683594 4691.4775390625,4374.289062500001) "/>
      </g>
      <ellipse fill="#f4f7f7" id="svg_53" ry="51.8" rx="63" cy="4373.838965" cx="4691.177734" class="st7" transform="rotate(-37.000999450683594 4691.177734375,4373.8388671875) "/>
      <path fill="#f4f7f7" id="svg_54" d="m4663.077734,4367.238965l10,-7l12.3,17.5c2.1,2.8 3.7,5.8 4.9,9.1c0.7,2.5 0.5,5.2 -0.5,7.6c-1.3,3 -3.4,5.5 -6.2,7.3c-3.3,2.3 -6.1,3.6 -8.5,4c-2.3,0.4 -4.7,0 -6.9,-1c-2.4,-1.2 -4.5,-2.9 -6.1,-5.1l8.6,-8c0.7,1.1 1.6,2.1 2.6,2.9c0.7,0.5 1.5,0.8 2.4,0.8c0.7,0 1.4,-0.3 1.9,-0.7c1,-0.6 1.7,-1.8 1.6,-3c-0.3,-1.7 -1,-3.4 -2.1,-4.7l-14,-19.7zm30,11.1l9.1,-7.2c1,1.2 2.3,2.1 3.7,2.6c2,0.6 4.1,0.2 5.8,-1.1c1.2,-0.8 2.2,-1.9 2.6,-3.3c0.6,-1.8 -0.4,-3.8 -2.2,-4.4c-0.3,-0.1 -0.6,-0.2 -0.9,-0.2c-1.2,-0.1 -3.3,0.4 -6.4,1.7c-5.1,2.1 -9.1,2.9 -12.1,2.6c-2.9,-0.3 -5.6,-1.8 -7.2,-4.3c-1.2,-1.7 -1.8,-3.7 -1.9,-5.7c0,-2.3 0.6,-4.6 1.9,-6.5c1.9,-2.7 4.2,-5 7,-6.8c4.2,-2.9 7.9,-4.3 11.1,-4.3c3.2,0 6.2,1.5 9,4.6l-9,7.1c-1.8,-2.3 -5.2,-2.8 -7.5,-1l-0.3,0.3c-1,0.6 -1.7,1.5 -2.1,2.6c-0.3,0.8 -0.1,1.7 0.4,2.4c0.4,0.5 1,0.9 1.7,0.9c0.8,0.1 2.2,-0.3 4.2,-1.2c5,-2.1 8.8,-3.3 11.4,-3.7c2.2,-0.4 4.5,-0.2 6.6,0.7c1.9,0.8 3.5,2.2 4.6,3.9c1.4,2 2.2,4.4 2.3,6.9c0.1,2.6 -0.6,5.1 -2,7.3c-1.8,2.7 -4.1,5 -6.8,6.8c-5.5,3.8 -10,5.4 -13.6,4.8c-3.9,-0.6 -7.1,-2.6 -9.4,-5.5z"/>
     </g>
    </g>
   </g>
  </g>
 </g>
</svg>